{
    "asset" : {
        "generator" : "Khronos glTF Blender I/O v1.8.19",
        "version" : "2.0"
    },
    "extensionsUsed" : [
        "KHR_lights_punctual"
    ],
    "extensionsRequired" : [
        "KHR_lights_punctual"
    ],
    "extensions" : {
        "KHR_lights_punctual" : {
            "lights" : [
                {
                    "color" : [
                        1,
                        1,
                        1
                    ],
                    "intensity" : 20,
                    "type" : "directional",
                    "name" : "Sun.002"
                },
                {
                    "color" : [
                        1,
                        1,
                        1
                    ],
                    "intensity" : 20.099998474121094,
                    "type" : "point",
                    "name" : "Point.001"
                }
            ]
        }
    },
    "scene" : 0,
    "scenes" : [
        {
            "name" : "Scene",
            "nodes" : [
                0,
                1,
                2,
                4,
                6,
                7
            ]
        }
    ],
    "nodes" : [
        {
            "name" : "Empty",
            "scale" : [
                0.3139486312866211,
                0.3139486312866211,
                0.3139486312866211
            ],
            "translation" : [
                -0.03060569427907467,
                0.2809945046901703,
                0.051505930721759796
            ]
        },
        {
            "mesh" : 0,
            "name" : "Plant house N150321.002",
            "rotation" : [
                0,
                -0.9412924647331238,
                0,
                -0.337592214345932
            ],
            "scale" : [
                0.008614263497292995,
                0.008614263497292995,
                0.008614263497292995
            ],
            "translation" : [
                -0.07701408118009567,
                0,
                0.0440080501139164
            ]
        },
        {
            "mesh" : 1,
            "name" : "Plane",
            "scale" : [
                3.170637607574463,
                1,
                3.170637607574463
            ]
        },
        {
            "extensions" : {
                "KHR_lights_punctual" : {
                    "light" : 0
                }
            },
            "name" : "Sun_Orientation",
            "rotation" : [
                -0.7071067690849304,
                0,
                0,
                0.7071067690849304
            ]
        },
        {
            "children" : [
                3
            ],
            "name" : "Sun"
        },
        {
            "extensions" : {
                "KHR_lights_punctual" : {
                    "light" : 1
                }
            },
            "name" : "Point_Orientation",
            "rotation" : [
                -0.7071067690849304,
                0,
                0,
                0.7071067690849304
            ]
        },
        {
            "children" : [
                5
            ],
            "name" : "Point",
            "translation" : [
                -0.09928542375564575,
                0.6586989760398865,
                0.09255421161651611
            ]
        },
        {
            "name" : "Area",
            "rotation" : [
                -0.04593042656779289,
                0.3415049910545349,
                -0.1419776976108551,
                0.9279585480690002
            ],
            "scale" : [
                2.1783294677734375,
                0.10590170323848724,
                2.947572708129883
            ],
            "translation" : [
                -1.7393877506256104,
                1.1331194639205933,
                1.3301525115966797
            ]
        }
    ],
    "materials" : [
        {
            "doubleSided" : true,
            "name" : "broun",
            "pbrMetallicRoughness" : {
                "baseColorTexture" : {
                    "index" : 0
                },
                "metallicFactor" : 0,
                "roughnessFactor" : 0.8999999761581421
            }
        },
        {
            "doubleSided" : true,
            "name" : "st_blue",
            "pbrMetallicRoughness" : {
                "baseColorTexture" : {
                    "index" : 1
                },
                "metallicFactor" : 0,
                "roughnessFactor" : 0.8999999761581421
            }
        },
        {
            "doubleSided" : true,
            "name" : "green",
            "pbrMetallicRoughness" : {
                "baseColorTexture" : {
                    "index" : 2
                },
                "metallicFactor" : 0,
                "roughnessFactor" : 0.4846153259277344
            }
        },
        {
            "doubleSided" : true,
            "name" : "Material.002",
            "pbrMetallicRoughness" : {
                "metallicFactor" : 0,
                "roughnessFactor" : 0.08461538702249527
            }
        }
    ],
    "meshes" : [
        {
            "name" : "Plant house N150321.002",
            "primitives" : [
                {
                    "attributes" : {
                        "POSITION" : 0,
                        "NORMAL" : 1,
                        "TEXCOORD_0" : 2
                    },
                    "indices" : 3,
                    "material" : 0
                },
                {
                    "attributes" : {
                        "POSITION" : 4,
                        "NORMAL" : 5,
                        "TEXCOORD_0" : 6
                    },
                    "indices" : 7,
                    "material" : 1
                },
                {
                    "attributes" : {
                        "POSITION" : 8,
                        "NORMAL" : 9,
                        "TEXCOORD_0" : 10
                    },
                    "indices" : 11,
                    "material" : 2
                }
            ]
        },
        {
            "name" : "Plane",
            "primitives" : [
                {
                    "attributes" : {
                        "POSITION" : 12,
                        "NORMAL" : 13,
                        "TEXCOORD_0" : 14
                    },
                    "indices" : 15,
                    "material" : 3
                }
            ]
        }
    ],
    "textures" : [
        {
            "sampler" : 0,
            "source" : 0
        },
        {
            "sampler" : 0,
            "source" : 1
        },
        {
            "sampler" : 0,
            "source" : 2
        }
    ],
    "images" : [
        {
            "bufferView" : 4,
            "mimeType" : "image/jpeg",
            "name" : "M62K"
        },
        {
            "bufferView" : 9,
            "mimeType" : "image/jpeg",
            "name" : "stone_fl"
        },
        {
            "bufferView" : 14,
            "mimeType" : "image/jpeg",
            "name" : "26_Plant"
        }
    ],
    "accessors" : [
        {
            "bufferView" : 0,
            "componentType" : 5126,
            "count" : 2177,
            "max" : [
                10.60509967803955,
                22.70009994506836,
                6.939199924468994
            ],
            "min" : [
                -14.359700202941895,
                -0.0038999998942017555,
                -18.025699615478516
            ],
            "type" : "VEC3"
        },
        {
            "bufferView" : 1,
            "componentType" : 5126,
            "count" : 2177,
            "type" : "VEC3"
        },
        {
            "bufferView" : 2,
            "componentType" : 5126,
            "count" : 2177,
            "type" : "VEC2"
        },
        {
            "bufferView" : 3,
            "componentType" : 5123,
            "count" : 7188,
            "type" : "SCALAR"
        },
        {
            "bufferView" : 5,
            "componentType" : 5126,
            "count" : 462,
            "max" : [
                8.928299903869629,
                13.028800010681152,
                5.264200210571289
            ],
            "min" : [
                -12.682900428771973,
                5.282700061798096,
                -44.55979919433594
            ],
            "type" : "VEC3"
        },
        {
            "bufferView" : 6,
            "componentType" : 5126,
            "count" : 462,
            "type" : "VEC3"
        },
        {
            "bufferView" : 7,
            "componentType" : 5126,
            "count" : 462,
            "type" : "VEC2"
        },
        {
            "bufferView" : 8,
            "componentType" : 5123,
            "count" : 2322,
            "type" : "SCALAR"
        },
        {
            "bufferView" : 10,
            "componentType" : 5126,
            "count" : 60379,
            "max" : [
                47.459999084472656,
                57.008399963378906,
                34.02330017089844
            ],
            "min" : [
                -52.960601806640625,
                4.485199928283691,
                -53.520198822021484
            ],
            "type" : "VEC3"
        },
        {
            "bufferView" : 11,
            "componentType" : 5126,
            "count" : 60379,
            "type" : "VEC3"
        },
        {
            "bufferView" : 12,
            "componentType" : 5126,
            "count" : 60379,
            "type" : "VEC2"
        },
        {
            "bufferView" : 13,
            "componentType" : 5123,
            "count" : 361854,
            "type" : "SCALAR"
        },
        {
            "bufferView" : 15,
            "componentType" : 5126,
            "count" : 4,
            "max" : [
                1,
                0,
                1
            ],
            "min" : [
                -1,
                0,
                -1
            ],
            "type" : "VEC3"
        },
        {
            "bufferView" : 16,
            "componentType" : 5126,
            "count" : 4,
            "type" : "VEC3"
        },
        {
            "bufferView" : 17,
            "componentType" : 5126,
            "count" : 4,
            "type" : "VEC2"
        },
        {
            "bufferView" : 18,
            "componentType" : 5123,
            "count" : 6,
            "type" : "SCALAR"
        }
    ],
    "bufferViews" : [
        {
            "buffer" : 0,
            "byteLength" : 26124,
            "byteOffset" : 0
        },
        {
            "buffer" : 0,
            "byteLength" : 26124,
            "byteOffset" : 26124
        },
        {
            "buffer" : 0,
            "byteLength" : 17416,
            "byteOffset" : 52248
        },
        {
            "buffer" : 0,
            "byteLength" : 14376,
            "byteOffset" : 69664
        },
        {
            "buffer" : 0,
            "byteLength" : 60995,
            "byteOffset" : 84040
        },
        {
            "buffer" : 0,
            "byteLength" : 5544,
            "byteOffset" : 145036
        },
        {
            "buffer" : 0,
            "byteLength" : 5544,
            "byteOffset" : 150580
        },
        {
            "buffer" : 0,
            "byteLength" : 3696,
            "byteOffset" : 156124
        },
        {
            "buffer" : 0,
            "byteLength" : 4644,
            "byteOffset" : 159820
        },
        {
            "buffer" : 0,
            "byteLength" : 68348,
            "byteOffset" : 164464
        },
        {
            "buffer" : 0,
            "byteLength" : 724548,
            "byteOffset" : 232812
        },
        {
            "buffer" : 0,
            "byteLength" : 724548,
            "byteOffset" : 957360
        },
        {
            "buffer" : 0,
            "byteLength" : 483032,
            "byteOffset" : 1681908
        },
        {
            "buffer" : 0,
            "byteLength" : 723708,
            "byteOffset" : 2164940
        },
        {
            "buffer" : 0,
            "byteLength" : 11114,
            "byteOffset" : 2888648
        },
        {
            "buffer" : 0,
            "byteLength" : 48,
            "byteOffset" : 2899764
        },
        {
            "buffer" : 0,
            "byteLength" : 48,
            "byteOffset" : 2899812
        },
        {
            "buffer" : 0,
            "byteLength" : 32,
            "byteOffset" : 2899860
        },
        {
            "buffer" : 0,
            "byteLength" : 12,
            "byteOffset" : 2899892
        }
    ],
    "samplers" : [
        {
            "magFilter" : 9729,
            "minFilter" : 9987
        }
    ],
    "buffers" : [
        {
            "byteLength" : 2899904,
            "uri" : "data:application/octet-stream;base64,"
        }
    ]
}
